# xmcd
#
# Track frame offsets:
#	183
#	30208
#	52870
#	73870
#	94195
#	110208
#	137833
#	154958
#	183258
#
# Disc length: 2557 seconds
#
# Revision: 2
# Processed by: cddbd v1.5.1PL0 Copyright (c) Steve Scherf et al.
# Submitted via: audiograbber 1.83.01
#
DISCID=7709fb09
DTITLE=Roy Buchanan - When A Guitar Plays The Blues
DYEAR=1985
DGENRE=Blues (Texas Style)
TTITLE0=When A Guitar Plays The Blues
TTITLE1=Chicago Smokeshop
TTITLE2=Mrs. Pressure
TTITLE3=A Nickel And A Nail
TTITLE4=Short Fuse
TTITLE5=Why Don't You Want Me?
TTITLE6=Country Boy
TTITLE7=Sneaking Godzilla Through The Alley
TTITLE8=Hawaiian Punch
EXTD=Alligator Records SNTCD 940
EXTT0=
EXTT1=
EXTT2=
EXTT3=
EXTT4=
EXTT5=
EXTT6=
EXTT7=
EXTT8=
PLAYORDER=
